<svg xmlns="http://www.w3.org/2000/svg" width="2156.212" height="1080" viewBox="0 0 2156.212 1080"><path d="M1645.081,1051.058,1616.143,1080l-2.127-2.127.018-.017L1347.2,811.025,1319.323,838.9l238.946,238.947-2.126,2.126L1317.2,841.031l-27.88,27.879,208.946,208.946-2.126,2.127L1287.192,871.037l-27.88,27.879,178.945,178.944-2.127,2.127L1257.185,901.042l-27.879,27.879,148.945,148.945-2.127,2.126L1227.18,931.048,1199.3,958.928l118.943,118.943-2.127,2.126L1197.174,961.053l-27.879,27.879,88.944,88.94-2.126,2.127-88.94-88.944-27.879,27.88,58.943,58.938L1196.11,1080l-58.939-58.943-27.879,27.879,28.943,28.938-2.126,2.127-28.939-28.942L1078.232,1080l-.153-.153-.126.126L809.006,811.025,781.127,838.9l238.946,238.947-2.127,2.126L779,841.031l-27.88,27.879,208.946,208.946-2.126,2.127L749,871.037l-27.88,27.879,178.945,178.944-2.127,2.127L718.989,901.042,691.11,928.922l148.945,148.945-2.127,2.126L688.984,931.048,661.1,958.928l118.944,118.943L777.921,1080,658.978,961.053,631.1,988.933l88.944,88.94L717.917,1080l-88.94-88.944-27.879,27.88,58.943,58.938L657.914,1080l-58.939-58.943L571.1,1048.936l28.943,28.938L597.913,1080l-28.939-28.942L540.037,1080l-2.127-2.127.017-.017L271.1,811.025,243.217,838.9l238.946,238.947-2.127,2.126L241.091,841.031l-27.88,27.879,208.946,208.946-2.126,2.127L211.086,871.037l-27.88,27.879L362.15,1077.861l-2.126,2.127L181.079,901.042,153.2,928.922l148.945,148.945-2.127,2.126L151.073,931.048l-27.879,27.879,118.944,118.943L240.011,1080,121.068,961.053,93.189,988.933l88.944,88.94L180.007,1080l-88.94-88.944-27.879,27.88,58.943,58.938L120,1080l-58.939-58.943-27.879,27.879,28.943,28.938L60,1080l-28.939-28.942L2.127,1080,0,1077.873l537.9-537.9-266.8-266.8-27.879,27.879L482.163,539.995l-2.127,2.126-.021-.021L2.122,1019.994,0,1017.873,477.895,539.978l-236.8-236.8-27.88,27.879L422.157,540l-2.126,2.127-.019-.019L2.122,960,0,957.875,417.89,539.985l-206.8-206.806-27.88,27.879,176.8,176.8h0l2.122,2.122h0l.018.018-2.126,2.127-.019-.018L2.122,900,0,897.873,357.883,539.989l-176.8-176.8L153.2,391.064,300,537.868l.005-.005,2.123,2.122-.006.005.019.019-2.127,2.126-.018-.018L2.122,839.993,0,837.871,297.877,539.995l-146.8-146.8L123.194,421.07,240,537.872l.011-.01,2.121,2.122-.01.01.019.019-2.127,2.125-.018-.018L2.122,779.992,0,777.869,237.871,540l-116.8-116.8L93.189,451.076l86.8,86.8.013-.013,2.122,2.122-.013.013.018.018-2.126,2.127-.019-.019L2.122,719.99,0,717.868,177.866,540,91.067,453.2l-27.879,27.88,56.8,56.8.014-.014,2.122,2.122-.014.013.019.018L120,542.142l-.018-.018L2.122,659.988,0,657.867,117.864,540l-56.8-56.8L33.186,511.079l26.8,26.8.014-.014,2.123,2.122-.014.013.018.018L60,542.143l-.019-.019L2.122,599.986,0,597.865,57.862,540l-26.8-26.8L2.127,542.143,0,540.016,540.016,0l2.127,2.127L513.2,31.064l26.829,26.824L597.912,0l2.122,2.123-60,60-.008-.007-.008.007-28.884-29L483.253,61.011l56.829,56.826L657.914,0l2.122,2.123-120,120-2.122-2.122.047-.046L481.132,63.132,453.251,91.013l86.831,86.826L717.917,0l2.121,2.123L540.032,182.133l-2.122-2.122.046-.046L451.13,93.135,423.25,121.014l116.829,116.83L777.918,0l2.121,2.123L540.032,242.135l-2.122-2.123.043-.043L421.124,123.14l-27.879,27.879,146.831,146.83L837.919,0l2.123,2.123L540.032,302.136l-2.122-2.122.039-.038L391.118,153.146l-27.879,27.879L540.07,357.856,897.921,0l2.122,2.123L540.032,362.138l-2.122-2.121.034-.033L361.112,183.152l-27.879,27.879L540.066,417.863,957.923,0l2.122,2.123L540.032,422.14l-2.122-2.121.029-.029L331.107,213.157l-27.879,27.879L540.059,477.868,1017.925,0l2.121,2.121L540.032,482.137l-2.122-2.121.023-.022L301.1,243.163l-27.879,27.879,266.832,266.83L1077.926,0l2.127,2.127L1051.11,31.064l26.972,26.967L1136.108,0l2.122,2.123-60,60-.151-.151-.151.151-28.884-29-27.879,27.879,56.972,56.968L1196.109,0l2.123,2.123-120,120-.151-.151-.1.1-58.938-58.945-27.88,27.881,86.973,86.968L1256.112,0l2.121,2.123-180,180.005-.152-.152-.1.1L989.04,93.135,961.16,121.014l116.972,116.972L1316.113,0l2.121,2.123L1078.229,242.135l-.152-.152-.1.1L959.035,123.14l-27.879,27.879,146.972,146.973L1376.115,0l2.122,2.123L1078.229,302.136l-.151-.151-.1.1L929.029,153.146l-27.879,27.879L1078.123,358,1436.117,0l2.122,2.123-360.01,360.01-.151-.151-.11.11L899.023,183.152l-27.879,27.879,206.974,206.974,418-418,2.121,2.123L1078.229,422.14l-.151-.151-.114.114L869.018,213.157l-27.879,27.879L1078.112,478.01,1556.121,0l2.121,2.121L1078.229,482.137l-.149-.149-.121.121L839.012,243.163l-27.879,27.879,266.974,266.973L1616.122,0l2.127,2.127-28.943,28.938,26.829,26.824L1674.018,0l2.122,2.123-60,60-.009-.007-.008.007-28.884-29-27.879,27.879,56.829,56.826L1734.019,0l2.123,2.123-120,120-2.123-2.122.047-.046-56.825-56.831-27.88,27.881,86.83,86.826L1794.022,0l2.121,2.123-180,180.005-2.123-2.122.046-.046-86.827-86.83-27.879,27.879,116.829,116.83L1854.023,0l2.122,2.123L1616.139,242.135l-2.123-2.123.044-.043L1497.23,123.14l-27.879,27.879,146.831,146.83L1914.026,0l2.122,2.123L1616.139,302.136l-2.123-2.122.039-.038L1467.224,153.146l-27.879,27.879,176.831,176.831L1974.027,0l2.123,2.123-360.011,360.01-2.123-2.121.034-.033L1437.219,183.152l-27.879,27.879,206.832,206.832L2034.03,0l2.121,2.123L1616.139,422.14l-2.123-2.121.029-.029L1407.213,213.157l-27.879,27.879,236.831,236.831L2094.031,0l2.121,2.121L1616.139,482.137l-2.123-2.121.022-.022L1377.208,243.163l-27.879,27.879,266.831,266.83L2154.033,0l2.126,2.127-28.943,28.938L2156.159,60l-2.126,2.126-28.885-29-27.879,27.879,58.943,58.939-2.125,2.127-58.939-58.945-27.88,27.881,88.944,88.94-2.127,2.126-88.939-88.944-27.879,27.879,118.942,118.943-2.126,2.126L2035.14,123.14l-27.879,27.879,148.944,148.945-2.127,2.127L2005.134,153.146l-27.879,27.879L2156.2,359.97l-2.126,2.126L1975.129,183.152l-27.879,27.879L2156.2,419.977l-2.127,2.126L1945.123,213.157l-27.879,27.879,238.947,238.946-2.127,2.127L1915.118,243.163l-27.879,27.879,268.947,268.947-2.127,2.127-.016-.017-26.827,26.823,28.943,28.939-2.126,2.126-28.885-29-27.879,27.879,58.943,58.939-2.125,2.127-58.939-58.944-27.88,27.88,88.944,88.94-2.127,2.126-88.939-88.944-27.879,27.879,118.942,118.943-2.126,2.126L2035.14,661l-27.879,27.879,148.944,148.944-2.127,2.127L2005.134,691l-27.879,27.879L2156.2,897.827l-2.126,2.127L1975.129,721.009l-27.879,27.879L2156.2,957.834l-2.127,2.126L1945.123,751.014l-27.879,27.879,238.947,238.947-2.127,2.126L1915.118,781.02,1887.239,808.9l268.947,268.947-2.127,2.127L1885.112,811.025,1857.233,838.9l238.946,238.947-2.126,2.126L1855.108,841.031l-27.88,27.879,208.945,208.946-2.126,2.127L1825.1,871.037l-27.88,27.879,178.945,178.944-2.127,2.127L1795.1,901.042l-27.879,27.879,148.945,148.945-2.127,2.126L1765.09,931.048l-27.879,27.879,118.943,118.943-2.126,2.126L1735.084,961.053,1707.2,988.933l88.945,88.94-2.127,2.127-88.94-88.944-27.879,27.88,58.943,58.938L1734.02,1080l-58.938-58.943-27.879,27.879,28.942,28.938-2.126,2.127ZM811.132,808.9l266.974,266.973,535.9-535.9L1347.2,273.168l-27.879,27.879,238.946,238.947-2.126,2.126-.021-.021-477.894,477.895-.149-.149-.121.121L839.012,781.02Zm538.2,0L1616.16,1075.73l535.757-535.757L1885.112,273.168l-27.879,27.879,238.946,238.947-2.126,2.126-.021-.021-477.894,477.895-2.123-2.121.022-.023L1377.208,781.02Zm-1076.107,0L540.054,1075.73l535.757-535.757-266.8-266.805-27.879,27.879,238.946,238.947-2.127,2.126-.021-.021L540.032,1019.994l-2.122-2.121.023-.023L301.1,781.02Zm567.916-30.006,236.973,236.974L1554,539.978l-236.8-236.8-27.88,27.879L1498.262,540l-2.126,2.127-.019-.019L1078.229,960l-.151-.151-.114.114L869.018,751.014Zm538.2,0,236.831,236.831,475.746-475.746-236.8-236.8-27.88,27.879L2036.173,540l-2.126,2.127-.018-.019L1616.139,960l-2.123-2.121.029-.029L1407.213,751.014Zm-1076.106,0,236.831,236.831L1015.8,539.978,779,303.174l-27.88,27.879L960.067,540l-2.126,2.127-.019-.019L540.032,960l-2.122-2.121.029-.029L331.107,751.014Zm567.916-30.005,206.974,206.974L1494,539.985l-206.8-206.806-27.88,27.879,176.8,176.8h0l2.122,2.122h0l.019.018-2.127,2.127-.018-.018L1078.229,900l-.151-.151-.11.11L899.023,721.009Zm538.2,0L1616.171,955.72l415.735-415.735L1825.1,333.179l-27.88,27.879,176.8,176.8h0l2.123,2.122h0l.019.018-2.127,2.127-.018-.018L1616.139,900l-2.123-2.122.034-.033L1437.219,721.009Zm-1076.107,0L540.066,955.72,955.8,539.985,749,333.179l-27.88,27.879,176.8,176.8h0l2.122,2.122h0l.019.018-2.127,2.127-.018-.018L540.032,900l-2.122-2.122.034-.033L361.112,721.009Zm567.916-30.006,176.974,176.974,355.866-355.867-176.8-176.8-27.879,27.879,146.8,146.8.006-.005,2.122,2.122-.005.005.018.019-2.127,2.126-.018-.018L1078.229,839.993l-.151-.151-.1.1L929.029,691Zm538.2,0,176.831,176.831L1971.9,539.989l-176.8-176.8-27.879,27.879,146.8,146.8.006-.005,2.122,2.122-.005.005.018.019-2.127,2.126-.018-.018L1616.139,839.993l-2.123-2.122.039-.039L1467.224,691Zm-1076.106,0L540.07,895.713,895.793,539.989l-176.8-176.8L691.11,391.064l146.8,146.8.005-.005,2.123,2.122-.006.005.019.019-2.127,2.126-.018-.018L540.032,839.993l-2.122-2.122.039-.039L391.118,691Zm567.916-30.005,146.972,146.972,295.856-295.855-146.8-146.8L1199.3,421.07l116.8,116.8.011-.01,2.121,2.122-.01.01.019.019-2.127,2.125-.018-.018-237.87,237.872-.152-.152-.1.1L959.035,661Zm538.2,0,146.831,146.829,295.712-295.711-146.8-146.8-27.879,27.879,116.8,116.8.011-.01,2.122,2.122-.011.01.019.019-2.126,2.125-.019-.018-237.87,237.872-2.123-2.123.044-.043L1497.23,661Zm-1076.106,0L540.076,835.706,835.787,539.995l-146.8-146.8L661.1,421.07l116.8,116.8.011-.01,2.121,2.122-.01.01.019.019-2.127,2.125-.018-.018L540.032,779.992l-2.122-2.123.043-.043L421.124,661ZM961.16,658.871l116.972,116.972L1313.977,540l-116.8-116.8-27.879,27.879,86.8,86.8.014-.013,2.121,2.122-.013.013.018.018-2.126,2.127-.019-.019L1078.229,719.99l-.152-.152-.1.1-88.94-88.944Zm538.2,0L1616.185,775.7l235.7-235.7-116.8-116.8L1707.2,451.076l86.8,86.8.013-.013,2.121,2.122-.013.013.019.018-2.127,2.127-.019-.019L1616.139,719.99l-2.123-2.122.046-.046-86.827-86.83Zm-1076.106,0L540.079,775.7,775.781,540l-116.8-116.8L631.1,451.076l86.8,86.8.013-.013,2.121,2.122-.013.013.018.018-2.126,2.127-.019-.019L540.032,719.99l-2.122-2.122.046-.046-86.827-86.83Zm567.912-30,86.973,86.968L1253.973,540l-86.8-86.805-27.879,27.88,56.8,56.8.013-.014,2.123,2.122-.014.013.019.018-2.127,2.126-.018-.018L1078.229,659.988l-.151-.151-.1.1-58.938-58.944Zm538.2,0,86.83,86.826L1791.883,540l-86.8-86.805-27.879,27.88,56.8,56.8.014-.014,2.123,2.122-.014.013.018.018-2.127,2.126-.017-.018L1616.139,659.988l-2.123-2.121.047-.048-56.825-56.829Zm-1076.107,0L540.082,715.7,715.777,540l-86.8-86.805L601.1,481.077l56.8,56.8.013-.014,2.122,2.122-.013.013.019.018-2.127,2.126-.018-.018L540.032,659.988l-2.122-2.121.047-.048L481.132,600.99Zm567.913-30,56.972,56.969L1193.97,540l-56.8-56.8-27.879,27.879,26.8,26.8.014-.014,2.122,2.122-.013.013.018.018-2.126,2.127-.019-.019-57.861,57.862-.151-.151-.151.151-28.884-29Zm538.2,0,56.829,56.826L1731.88,540l-56.8-56.8L1647.2,511.079l26.8,26.8.014-.014,2.122,2.122-.014.013.018.018-2.126,2.127-.019-.019-57.861,57.862-.009-.008-.008.008-28.884-29Zm-1076.106,0,56.829,56.826L655.774,540l-56.8-56.8L571.1,511.079l26.8,26.8.014-.014,2.122,2.122-.013.013.018.018-2.126,2.127-.019-.019-57.862,57.862-.008-.008-.008.008-28.884-29Zm567.857-29.947,26.972,26.967L1133.968,540l-26.8-26.8-28.938,28.942-.153-.153-.126.126-.016-.017Zm538.2,0,26.829,26.825L1671.879,540l-26.8-26.8-28.939,28.942-.027-.027Zm-1076.106,0,26.829,26.825L595.772,540l-26.8-26.8-28.938,28.942-.027-.027ZM0,480.016,480.015,0l2.121,2.121L2.122,482.137Zm0-60L420.013,0l2.122,2.123L2.122,422.14Zm0-60L360.011,0l2.122,2.123L2.122,362.138Zm0-60L300.009,0l2.123,2.123L2.122,302.136Zm0-60L240.008,0l2.121,2.123L2.122,242.135Zm0-60L180.005,0l2.122,2.123L2.122,182.133Zm0-60L120,0l2.122,2.123-120,120Zm0-60L60,0l2.123,2.123-60,60Z" fill="#124489"/></svg>