<svg xmlns="http://www.w3.org/2000/svg" width="27.188" height="29" viewBox="0 0 27.188 29"><g transform="translate(-1557.88 -237)"><g transform="translate(1557.88 237)"><path d="M111.969,0H90.219A2.722,2.722,0,0,0,87.5,2.719V21.75a2.724,2.724,0,0,0,1.813,2.564v3.78a.906.906,0,0,0,1.433.737l6.107-4.362h15.116a2.722,2.722,0,0,0,2.719-2.719V2.719A2.722,2.722,0,0,0,111.969,0Zm-7.325,14.772a.673.673,0,0,0-.313.55v2.739a3.236,3.236,0,1,1-6.473,0V15.32a.657.657,0,0,0-.3-.541,6.343,6.343,0,0,1,3.68-11.606,6.417,6.417,0,0,1,6.2,6.146,6.306,6.306,0,0,1-2.791,5.454Z" transform="translate(-87.5)" fill="#d9c900"/></g><path d="M267.127,96.244a4.53,4.53,0,0,0-2.632,8.287,2.467,2.467,0,0,1,1.106,2.047v.281h2.848v-.279a2.482,2.482,0,0,1,1.114-2.054,4.5,4.5,0,0,0,1.991-3.894,4.58,4.58,0,0,0-4.427-4.388Z" transform="translate(1304.448 145.741)" fill="#d9c900"/><path d="M322.5,336.886a1.424,1.424,0,1,0,2.848,0v-.648H322.5Z" transform="translate(1247.55 -81.826)" fill="#d9c900"/></g></svg>