<svg xmlns="http://www.w3.org/2000/svg" width="164" height="13" viewBox="0 0 164 13"><path d="M11,11.882a8.011,8.011,0,0,1-2.244.865A11.079,11.079,0,0,1,6.39,13,6.8,6.8,0,0,1,3.8,12.519a5.832,5.832,0,0,1-2.017-1.345A6.178,6.178,0,0,1,.471,9.112,7.058,7.058,0,0,1,0,6.5,7,7,0,0,1,.471,3.9a6.2,6.2,0,0,1,1.31-2.053A5.937,5.937,0,0,1,3.8.489,6.7,6.7,0,0,1,6.39,0a5.984,5.984,0,0,1,4.452,1.713L10,2.586a3.6,3.6,0,0,0-.69-.62,4.714,4.714,0,0,0-.89-.489,5.749,5.749,0,0,0-1-.314,4.834,4.834,0,0,0-1.03-.114,5.419,5.419,0,0,0-2.174.419,4.838,4.838,0,0,0-1.65,1.153A5.106,5.106,0,0,0,1.519,4.351,6.174,6.174,0,0,0,1.152,6.5a6.172,6.172,0,0,0,.367,2.149,5.108,5.108,0,0,0,1.048,1.73,4.843,4.843,0,0,0,1.65,1.153,5.419,5.419,0,0,0,2.174.419,10.531,10.531,0,0,0,1.868-.157,4.8,4.8,0,0,0,1.589-.577V7.059H6.879V6.011H11Z" fill="#fff" fill-rule="evenodd"/><path d="M20.138,5.715h2.413a3.766,3.766,0,0,0,1.456-.238,2.4,2.4,0,0,0,.871-.586A1.877,1.877,0,0,0,25.3,4.14a2.761,2.761,0,0,0,.112-.733,2.763,2.763,0,0,0-.112-.733,1.883,1.883,0,0,0-.422-.751,2.406,2.406,0,0,0-.871-.586A3.766,3.766,0,0,0,22.551,1.1H20.138ZM19,0h3.206q.241,0,.655.018a6.355,6.355,0,0,1,.9.11,5.271,5.271,0,0,1,.982.293,2.759,2.759,0,0,1,.9.586,3.055,3.055,0,0,1,.655.971,3.538,3.538,0,0,1,.258,1.429,3.447,3.447,0,0,1-.3,1.539,2.955,2.955,0,0,1-.759.98,3.135,3.135,0,0,1-1.008.559,6.194,6.194,0,0,1-1.052.256L27,13H25.707L22.258,6.815h-2.12V13H19Z" fill="#fff" fill-rule="evenodd"/><path d="M44,7.705a8.621,8.621,0,0,1-.227,2,4.686,4.686,0,0,1-.759,1.686,3.846,3.846,0,0,1-1.4,1.172,5.322,5.322,0,0,1-4.237,0,3.843,3.843,0,0,1-1.4-1.172A4.665,4.665,0,0,1,35.228,9.7a8.578,8.578,0,0,1-.227-2V0h1.151l0,7.394a9.688,9.688,0,0,0,.122,1.484,4.646,4.646,0,0,0,.479,1.466,3.116,3.116,0,0,0,5.494,0,4.645,4.645,0,0,0,.479-1.466,9.739,9.739,0,0,0,.122-1.484V0H44Z" fill="#fff" fill-rule="evenodd"/><path d="M53.224,5.83H56a4.358,4.358,0,0,0,1.018-.119,2.642,2.642,0,0,0,.889-.385,2,2,0,0,0,.63-.705,2.226,2.226,0,0,0,.241-1.081,2.116,2.116,0,0,0-.25-1.062,2.229,2.229,0,0,0-.648-.724,2.665,2.665,0,0,0-.917-.412,4.314,4.314,0,0,0-1.036-.128h-2.7ZM52,0l3.776.115A7.075,7.075,0,0,1,57.214.27a4.211,4.211,0,0,1,1.37.54A3.054,3.054,0,0,1,59.6,1.864,3.229,3.229,0,0,1,60,3.54a3.334,3.334,0,0,1-.324,1.52,2.987,2.987,0,0,1-.87,1.054,3.769,3.769,0,0,1-1.259.613,5.436,5.436,0,0,1-1.49.2H53.224l0,6.071H52Z" fill="#fff" fill-rule="evenodd"/><path d="M68.082,6.5a6.534,6.534,0,0,0,.344,2.149,5.176,5.176,0,0,0,.983,1.729,4.561,4.561,0,0,0,1.549,1.153,5.176,5.176,0,0,0,4.082,0,4.561,4.561,0,0,0,1.549-1.153,5.176,5.176,0,0,0,.983-1.729A6.534,6.534,0,0,0,77.918,6.5a6.534,6.534,0,0,0-.344-2.149,5.176,5.176,0,0,0-.983-1.729,4.556,4.556,0,0,0-1.549-1.153,5.176,5.176,0,0,0-4.082,0A4.556,4.556,0,0,0,69.41,2.622a5.176,5.176,0,0,0-.983,1.729A6.534,6.534,0,0,0,68.082,6.5M67,6.5a7.4,7.4,0,0,1,.443-2.6,6.26,6.26,0,0,1,1.229-2.053A5.573,5.573,0,0,1,70.566.491a6.283,6.283,0,0,1,4.869,0,5.569,5.569,0,0,1,1.894,1.354A6.253,6.253,0,0,1,78.557,3.9,7.4,7.4,0,0,1,79,6.5a7.464,7.464,0,0,1-.443,2.612,6.241,6.241,0,0,1-1.229,2.062,5.474,5.474,0,0,1-1.894,1.345,6.41,6.41,0,0,1-4.869,0,5.477,5.477,0,0,1-1.894-1.345,6.248,6.248,0,0,1-1.229-2.062A7.464,7.464,0,0,1,67,6.5" fill="#fff" fill-rule="evenodd"/><path d="M98,7.669a6.229,6.229,0,0,1-.35,2.125,4.668,4.668,0,0,1-1.041,1.685A4.769,4.769,0,0,1,94.887,12.6a7.271,7.271,0,0,1-4.772,0,4.767,4.767,0,0,1-1.723-1.118,4.661,4.661,0,0,1-1.041-1.685A6.219,6.219,0,0,1,87,7.669V0h2.874l0,7.559a3.136,3.136,0,0,0,.194,1.117,2.659,2.659,0,0,0,.543.889,2.454,2.454,0,0,0,.838.586,2.64,2.64,0,0,0,1.059.211,2.58,2.58,0,0,0,1.05-.211,2.486,2.486,0,0,0,.829-.586,2.667,2.667,0,0,0,.544-.889,3.146,3.146,0,0,0,.193-1.117l0-7.559H98Z" fill="#fff" fill-rule="evenodd"/><path d="M106,0h2.8l0,10.348H114L114,13h-8Z" fill="#fff" fill-rule="evenodd"/><path d="M121.607,2.528H118V0h10V2.528h-3.607V13h-2.786Z" fill="#fff" fill-rule="evenodd"/><path d="M136.787,5.482h1.62q.37,0,.783-.027a2.382,2.382,0,0,0,.748-.165,1.3,1.3,0,0,0,.554-.431,1.347,1.347,0,0,0,.22-.824,1.411,1.411,0,0,0-.194-.787,1.313,1.313,0,0,0-.493-.449,2.126,2.126,0,0,0-.687-.211,5.344,5.344,0,0,0-.757-.055h-1.8ZM134.04,0l4.824.115a8.182,8.182,0,0,1,1.8.193,4.186,4.186,0,0,1,1.5.641,3.158,3.158,0,0,1,1.021,1.209,4.234,4.234,0,0,1,.379,1.9,3.916,3.916,0,0,1-.687,2.336,3.069,3.069,0,0,1-2.007,1.218L144,13h-3.292l-2.565-5.1h-1.355l-.04,5.1H134Z" fill="#fff" fill-rule="evenodd"/><path d="M157.405,3.774,155.9,7.8h3.027ZM156.356,0h2.257L164,13h-3.079l-1.066-2.778h-4.811L154.009,13H151Z" fill="#fff" fill-rule="evenodd"/></svg>