<svg xmlns="http://www.w3.org/2000/svg" xmlns:xlink="http://www.w3.org/1999/xlink" width="84" height="84" viewBox="0 0 84 84"><defs><linearGradient id="a" y1="0.235" x2="1" y2="0.651" gradientUnits="objectBoundingBox"><stop offset="0" stop-color="#405371"/><stop offset="1" stop-color="#263a5f"/></linearGradient><filter id="b" x="13.759" y="15.103" width="65.582" height="32.536" filterUnits="userSpaceOnUse"><feOffset dy="1" input="SourceAlpha"/><feGaussianBlur stdDeviation="1.5" result="c"/><feFlood flood-opacity="0.161"/><feComposite operator="in" in2="c"/><feComposite in="SourceGraphic"/></filter></defs><g transform="translate(-174 -725)"><circle cx="42" cy="42" r="42" transform="translate(174 725)" fill="url(#a)"/><g transform="translate(1.242 335)"><g transform="matrix(1, 0, 0, 1, 172.76, 390)" filter="url(#b)"><path d="M51.1,22.906c-.45-.243-1.008-.545-1.619-.85a10.2,10.2,0,0,1-1.768.383,17.037,17.037,0,0,0-.059-1.938,22.873,22.873,0,0,0-.609-3.642,23.541,23.541,0,0,0-5.1-9.774,25.383,25.383,0,0,0-2.176-2.258,10.247,10.247,0,0,1,2.793-1.546A10.6,10.6,0,0,1,46.4,2.648a10.192,10.192,0,0,1,10.177,10.14,9.66,9.66,0,0,1-2.138,5.9,10.164,10.164,0,0,1-1.534,1.535c-.117.791-.185,1.495-.239,2.061a3.335,3.335,0,0,1-.209,1.244.09.09,0,0,1-.042.008A6.142,6.142,0,0,1,51.1,22.906Zm-13.63-4.975a24.307,24.307,0,0,1-4.912-.5,24.44,24.44,0,0,1-4.3-1.319A27.3,27.3,0,0,1,21.518,12.1a30.631,30.631,0,0,1-2.4-2.149c-.613-.609-1.2-1.244-1.741-1.885a20.118,20.118,0,0,1-1.446-1.893.489.489,0,0,0-.365-.231l-.047,0a.484.484,0,0,0-.352.157s-.34.364-.955.907A23.388,23.388,0,0,1,11.7,8.937a18.7,18.7,0,0,1-3.673,1.918,12.543,12.543,0,0,1-4.445.87h0a10.273,10.273,0,0,1-1.774-.154A10.045,10.045,0,0,1,0,11.074,23.648,23.648,0,0,1,3.811,6.542a24.376,24.376,0,0,1,4.864-3.5A24.777,24.777,0,0,1,14.371.8,25.313,25.313,0,0,1,20.685,0a25.041,25.041,0,0,1,8.226,1.378,24.626,24.626,0,0,1,7.026,3.8l.01-.011a22.587,22.587,0,0,1,3.035,2.9,23.466,23.466,0,0,1,5.093,9.083.477.477,0,0,0-.133-.019.453.453,0,0,0-.11.014,28.561,28.561,0,0,1-3.278.6,25.936,25.936,0,0,1-3.085.187Z" transform="translate(18.26 18.6)" fill="#f4f8f9"/></g><g transform="translate(187.493 417.179)"><path d="M9.694,38.975a1.926,1.926,0,0,1-.509-1.063,4.314,4.314,0,0,1-.111-.445,26.054,26.054,0,0,1-.5-3.852l-.034-.232h0a23.732,23.732,0,0,1-3.627-3.64,22.718,22.718,0,0,1-2.68-4.24A22.11,22.11,0,0,1,3.036,4.637a.481.481,0,0,0,.15.092A11.2,11.2,0,0,0,5.212,5.3a11.189,11.189,0,0,0,1.975.175h0a12.952,12.952,0,0,0,4-.664,17.7,17.7,0,0,0,3.436-1.563A22.935,22.935,0,0,0,18.9,0a30.533,30.533,0,0,0,6.79,6.652,27.291,27.291,0,0,0,6.522,3.454,25,25,0,0,0,4.011,1.087,25.079,25.079,0,0,0,4.5.4,26.679,26.679,0,0,0,3.171-.192,29.206,29.206,0,0,0,3.369-.612.485.485,0,0,0,.26-.165,22.163,22.163,0,0,1,.622,3.661,15.845,15.845,0,0,1,.055,1.689.315.315,0,0,0,0,.035h0A13.731,13.731,0,0,1,48.06,18.2h-.01a22.022,22.022,0,0,1-.881,4.207A22.338,22.338,0,0,1,45.524,26.3a23.009,23.009,0,0,1-2.329,3.5,23.717,23.717,0,0,1-2.933,3.04,24.258,24.258,0,0,1-3.457,2.5,24.565,24.565,0,0,1-3.9,1.878,24.8,24.8,0,0,1-4.265,1.183,25.3,25.3,0,0,1-4.549.411,25.029,25.029,0,0,1-8.263-1.394c-4.288,2.01-4.608,2.094-4.9,2.094A1.69,1.69,0,0,1,9.694,38.975Z" fill="#f4f8f9"/><path d="M296.9,192.639c0,2.979,1.848,5.361,4.619,5.361s4.619-1.986,7.392-4.964c-3.7-6.453-10.163-6.453-12.011-.4Zm-9.239,0c-1.848-6.056-8.314-6.056-12.011.4,2.772,2.979,4.619,4.964,7.392,4.964s4.619-2.382,4.619-5.361Z" transform="translate(-268.014 -175.252)" fill="url(#a)"/><path d="M265.554,267.09H253.389a.935.935,0,0,0-.763.409,1.087,1.087,0,0,0-.154.9c.563,2.086,2.75,6.03,7,6.03s6.437-3.944,7-6.03a1.089,1.089,0,0,0-.154-.9.936.936,0,0,0-.763-.409Z" transform="translate(-235.147 -241.706)" fill="url(#a)"/></g></g></g></svg>